<svg height="480pt" viewBox="0 0 480 480" width="480pt" xmlns="http://www.w3.org/2000/svg"><path d="m456 0h-432c-13.253906 0-24 10.746094-24 24v432c0 13.253906 10.746094 24 24 24h432c13.253906 0 24-10.746094 24-24v-432c0-13.253906-10.746094-24-24-24zm-440 24c0-4.417969 3.582031-8 8-8h432c4.417969 0 8 3.582031 8 8v104h-448zm448 432c0 4.417969-3.582031 8-8 8h-432c-4.417969 0-8-3.582031-8-8v-312h448zm0 0"/><path d="m72 40c-17.671875 0-32 14.328125-32 32s14.328125 32 32 32 32-14.328125 32-32-14.328125-32-32-32zm0 48c-8.835938 0-16-7.164062-16-16s7.164062-16 16-16 16 7.164062 16 16-7.164062 16-16 16zm0 0"/><path d="m152 40c-17.671875 0-32 14.328125-32 32s14.328125 32 32 32 32-14.328125 32-32-14.328125-32-32-32zm0 48c-8.835938 0-16-7.164062-16-16s7.164062-16 16-16 16 7.164062 16 16-7.164062 16-16 16zm0 0"/><path d="m232 40c-17.671875 0-32 14.328125-32 32s14.328125 32 32 32 32-14.328125 32-32-14.328125-32-32-32zm0 48c-8.835938 0-16-7.164062-16-16s7.164062-16 16-16 16 7.164062 16 16-7.164062 16-16 16zm0 0"/><path d="m40 312h30.023438c.457031 1.152344.921874 2.265625 1.390624 3.351562l-21.230468 21.234376c-3.121094 3.121093-3.121094 8.1875 0 11.308593l33.921875 33.921875c3.121093 3.121094 8.1875 3.121094 11.308593 0l21.234376-21.230468c1.085937.476562 2.199218.933593 3.351562 1.390624v30.023438c0 4.417969 3.582031 8 8 8h48c4.417969 0 8-3.582031 8-8v-30.023438c1.152344-.457031 2.265625-.914062 3.34375-1.390624l21.242188 21.230468c3.121093 3.121094 8.1875 3.121094 11.308593 0l33.921875-33.921875c3.121094-3.121093 3.121094-8.1875 0-11.308593l-21.230468-21.234376c.46875-1.085937.933593-2.199218 1.390624-3.351562h30.023438c4.417969 0 8-3.582031 8-8v-48c0-4.417969-3.582031-8-8-8h-30.023438c-.457031-1.152344-.921874-2.265625-1.390624-3.351562l21.230468-21.234376c3.121094-3.121093 3.121094-8.1875 0-11.308593l-33.921875-33.921875c-3.121093-3.121094-8.1875-3.121094-11.308593 0l-21.242188 21.230468c-1.078125-.476562-2.191406-.933593-3.34375-1.390624v-30.023438c0-4.417969-3.582031-8-8-8h-48c-4.417969 0-8 3.582031-8 8v30.023438c-1.152344.457031-2.265625.914062-3.351562 1.390624l-21.234376-21.230468c-3.121093-3.121094-8.1875-3.121094-11.308593 0l-33.921875 33.921875c-3.121094 3.121093-3.121094 8.1875 0 11.308593l21.230468 21.234376c-.46875 1.085937-.933593 2.199218-1.390624 3.351562h-30.023438c-4.417969 0-8 3.582031-8 8v48c0 4.417969 3.582031 8 8 8zm8-48h27.679688c3.472656 0 6.550781-2.238281 7.617187-5.542969 1.222656-4.003906 2.828125-7.875 4.800781-11.570312 1.707032-3.117188 1.152344-6.988281-1.363281-9.503907l-19.582031-19.621093 22.609375-22.5625 19.621093 19.617187c2.511719 2.511719 6.382813 3.066406 9.496094 1.359375 3.695313-1.976562 7.566406-3.597656 11.570313-4.839843 3.320312-1.066407 5.566406-4.167969 5.550781-7.65625v-27.679688h32v27.679688c0 3.476562 2.242188 6.554687 5.550781 7.617187 4.003907 1.242187 7.875 2.859375 11.570313 4.839844 3.113281 1.703125 6.984375 1.152343 9.496094-1.359375l19.621093-19.578125 22.609375 22.601562-19.625 19.625c-2.515625 2.511719-3.066406 6.382813-1.359375 9.503907 1.984375 3.6875 3.605469 7.5625 4.839844 11.566406 1.082031 3.289062 4.15625 5.511718 7.617187 5.503906h27.679688v32h-27.679688c-3.472656 0-6.550781 2.238281-7.617187 5.542969-1.234375 4.003906-2.855469 7.878906-4.839844 11.570312-1.707031 3.117188-1.15625 6.988281 1.359375 9.503907l19.625 19.621093-22.609375 22.601563-19.621093-19.617188c-2.511719-2.511718-6.382813-3.0625-9.496094-1.359375-3.695313 1.980469-7.566406 3.597657-11.570313 4.839844-3.308593 1.0625-5.550781 4.140625-5.550781 7.617187v27.679688h-32v-27.679688c0-3.476562-2.242188-6.554687-5.550781-7.617187-4.003907-1.242187-7.875-2.859375-11.570313-4.839844-3.113281-1.703125-6.984375-1.152343-9.496094 1.359375l-19.621093 19.617188-22.609375-22.601563 19.625-19.621093c2.515625-2.515626 3.066406-6.386719 1.359375-9.503907-1.96875-3.695312-3.578125-7.566406-4.800781-11.570312-1.070313-3.316407-4.167969-5.5625-7.65625-5.542969h-27.679688zm0 0"/><path d="m152 328c26.507812 0 48-21.492188 48-48s-21.492188-48-48-48-48 21.492188-48 48c.027344 26.5 21.5 47.972656 48 48zm0-80c17.671875 0 32 14.328125 32 32s-14.328125 32-32 32-32-14.328125-32-32 14.328125-32 32-32zm0 0"/><path d="m272 376c0 4.417969 3.582031 8 8 8h22.046875l-15.648437 15.625c-3.121094 3.121094-3.121094 8.1875 0 11.3125l22.640624 22.636719c3.125 3.125 8.1875 3.125 11.3125 0l15.648438-15.621094v22.046875c0 4.417969 3.582031 8 8 8h32c4.417969 0 8-3.582031 8-8v-22.046875l15.625 15.648437c3.121094 3.121094 8.1875 3.121094 11.3125 0l22.636719-22.640624c3.125-3.125 3.125-8.1875 0-11.3125l-15.621094-15.648438h22.046875c4.417969 0 8-3.582031 8-8v-32c0-4.417969-3.582031-8-8-8h-22.046875l15.648437-15.625c3.121094-3.121094 3.121094-8.1875 0-11.3125l-22.640624-22.636719c-3.125-3.125-8.1875-3.125-11.3125 0l-15.648438 15.621094v-22.046875c0-4.417969-3.582031-8-8-8h-32c-4.417969 0-8 3.582031-8 8v22.046875l-15.625-15.648437c-3.121094-3.121094-8.1875-3.121094-11.3125 0l-22.636719 22.640624c-3.125 3.125-3.125 8.1875 0 11.3125l15.621094 15.648438h-22.046875c-4.417969 0-8 3.582031-8 8zm16-24h26.800781c3.535157 0 6.648438-2.320312 7.664063-5.703125.34375-1.105469.796875-2.179687 1.34375-3.199219 1.621094-3.101562 1.042968-6.894531-1.433594-9.371094l-18.984375-19.007812 11.328125-11.328125 18.984375 19.007813c2.472656 2.476562 6.269531 3.054687 9.367187 1.433593 1.039063-.554687 2.125-1.007812 3.25-1.351562 3.382813-1.023438 5.691407-4.148438 5.679688-7.679688v-26.800781h16v26.800781c0 3.523438 2.308594 6.632813 5.679688 7.65625 1.125.339844 2.210937.792969 3.25 1.351563 3.097656 1.621094 6.894531 1.042968 9.367187-1.433594l18.984375-18.984375 11.328125 11.328125-19.007813 18.984375c-2.476562 2.472656-3.054687 6.269531-1.433593 9.367187.546875 1.023438.996093 2.09375 1.34375 3.203126 1.007812 3.402343 4.136719 5.734374 7.6875 5.726562h26.800781v16h-26.800781c-3.535157 0-6.648438 2.320312-7.664063 5.703125-.34375 1.105469-.796875 2.179687-1.34375 3.199219-1.621094 3.101562-1.042968 6.894531 1.433594 9.371094l18.984375 18.984374-11.328125 11.351563-18.984375-19.007813c-2.472656-2.476562-6.269531-3.054687-9.367187-1.433593-1.039063.554687-2.125 1.007812-3.25 1.351562-3.371094 1.023438-5.679688 4.132813-5.679688 7.65625v26.824219h-16v-26.800781c0-3.523438-2.308594-6.632813-5.679688-7.65625-1.125-.339844-2.210937-.792969-3.25-1.351563-3.097656-1.621094-6.894531-1.042968-9.367187 1.433594l-18.984375 18.984375-11.328125-11.328125 19.007813-18.984375c2.476562-2.472656 3.054687-6.269531 1.433593-9.367187-.546875-1.023438-.996093-2.09375-1.34375-3.203126-1.007812-3.402343-4.136719-5.734374-7.6875-5.726562h-26.800781zm0 0"/><path d="m360 384c13.253906 0 24-10.746094 24-24s-10.746094-24-24-24-24 10.746094-24 24 10.746094 24 24 24zm0-32c4.417969 0 8 3.582031 8 8s-3.582031 8-8 8-8-3.582031-8-8 3.582031-8 8-8zm0 0"/></svg>